<svg version="1.1" xmlns="http://www.w3.org/2000/svg" xmlns:xlink="http://www.w3.org/1999/xlink" preserveAspectRatio="xMidYMid meet" viewBox="0 0 640 640" width="640" height="640"><defs><path d="M516.07 564.44L546.98 614.82L549.33 618.65L671.31 618.65L673.77 379.63L516.07 379.63L516.07 379.63L516.07 564.44Z" id="a4cqBlQRrD"></path><path d="M516.07 564.44L546.98 614.82L548.88 379.63L516.07 379.63L516.07 379.63L516.07 564.44Z" id="a3wLiLgpdf"></path><path d="M221.61 559.51L190.7 609.89L188.34 613.72L66.37 613.72L63.91 374.7L221.61 374.7L221.61 374.7L221.61 559.51Z" id="aKQFag7NE"></path><path d="M221.61 559.51L190.7 609.89L188.8 374.7L221.61 374.7L221.61 374.7L221.61 559.51Z" id="b3aAnffrp"></path><path d="M710.73 382.09L47.89 382.09L47.89 366.08L109.49 334.04L656.52 334.04L710.73 371.01L710.73 371.01L710.73 382.09Z" id="a25ZGv1iYD"></path><path d="M710.73 382.09L47.89 382.09L47.89 366.08L710.73 371.01L710.73 371.01L710.73 382.09Z" id="a5wCzSb39G"></path><path d="M113.19 426.45L100.87 417.82L156.31 417.82L142.76 426.45L142.76 426.45L113.19 426.45Z" id="b5q51x70Mv"></path><path d="M113.19 462.18L100.87 453.55L156.31 453.55L142.76 462.18L142.76 462.18L113.19 462.18Z" id="a6dzryRddg"></path><path d="M113.19 512.69L100.87 504.07L156.31 504.07L142.76 512.69L142.76 512.69L113.19 512.69Z" id="a3a8JtHql5"></path><path d="M113.19 563.21L100.87 554.58L156.31 554.58L142.76 563.21L142.76 563.21L113.19 563.21Z" id="a1lNbo4sil"></path><path d="M624.49 431.38L636.81 422.75L581.37 422.75L594.92 431.38L594.92 431.38L624.49 431.38Z" id="c276mJCav5"></path><path d="M624.49 467.11L636.81 458.48L581.37 458.48L594.92 467.11L594.92 467.11L624.49 467.11Z" id="d1M6Knm5w9"></path><path d="M624.49 517.62L636.81 509L581.37 509L594.92 517.62L594.92 517.62L624.49 517.62Z" id="i3wtSr58oY"></path><path d="M624.49 568.13L636.81 559.51L581.37 559.51L594.92 568.13L594.92 568.13L624.49 568.13Z" id="esVrWjUmm"></path><path d="M366.12 120.33C360.92 120.33 356.71 124.55 356.71 129.75C356.71 129.75 356.71 129.75 356.71 129.75C356.71 146.52 356.71 280.67 356.71 297.43C356.71 302.63 360.92 306.85 366.12 306.85C366.12 306.85 366.12 306.85 366.12 306.85C372.42 306.85 403.92 306.85 460.62 306.85C458.5 320.41 457.32 327.94 457.08 329.45C457.08 329.45 436.85 340.2 451.07 340.52C451.07 340.52 532.32 340.52 532.32 340.52C532.32 340.52 545.28 340.52 524.73 329.14C524.51 327.65 523.4 320.22 521.4 306.85C577.59 306.85 608.81 306.85 615.06 306.85C620.25 306.85 624.47 302.64 624.47 297.44C624.47 297.44 624.47 297.44 624.47 297.43C624.47 280.67 624.47 146.52 624.47 129.75C624.47 124.55 620.26 120.33 615.06 120.33C615.06 120.33 615.06 120.33 615.06 120.33C615.06 120.33 391.02 120.33 366.12 120.33Z" id="c52MiaQfYd"></path><path d="M615.46 130.29C615.46 130.29 615.46 130.29 615.46 130.29C615.46 214.13 615.46 260.7 615.46 270.02C615.46 270.02 615.46 270.02 615.46 270.02C465.62 270.02 382.37 270.02 365.72 270.02C365.72 270.02 365.72 270.02 365.72 270.02C365.72 186.18 365.72 139.61 365.72 130.29C365.72 130.29 365.72 130.29 365.72 130.29C515.56 130.29 598.81 130.29 615.46 130.29Z" id="ah2ZG3hJd"></path><path d="M490.59 124.29C489.72 124.29 489.01 124.99 489.01 125.87C489.01 126.74 489.72 127.45 490.59 127.45C491.46 127.45 492.17 126.74 492.17 125.87C492.17 124.99 491.46 124.29 490.59 124.29Z" id="b2JzUpjd0c"></path><path d="M490.59 288.04C487.27 288.04 484.58 290.73 484.58 294.05C484.58 297.36 487.27 300.05 490.59 300.05C493.91 300.05 496.6 297.36 496.6 294.05C496.6 290.73 493.91 288.04 490.59 288.04Z" id="a1VJ5fJeG"></path><path d="M481.23 360.75L311.15 360.75L311.15 358.22L311.39 357.59L315.58 346.21L477.75 346.21L481.23 357.59L481.23 357.59L481.23 360.75Z" id="b10NahClUb"></path><path d="M542.56 358.54C533.07 363.28 513.79 357.27 513.79 357.27C513.79 357.27 498.93 354.74 498.93 348.1C499.35 347.82 499.78 347.56 500.24 347.33C504.22 345.22 517.44 340.01 540.88 347.55C542.61 348.09 544.15 349.1 545.34 350.47C546.41 351.52 546.9 353.01 546.68 354.49C546.37 355.82 545.2 357.21 542.56 358.54Z" id="b4cJrdQ4Si"></path><path d="M514.11 351.9C510.09 348.93 505.23 347.33 500.24 347.33C504.22 345.22 517.44 340.01 540.88 347.55C542.61 348.09 544.15 349.1 545.34 350.47C546.41 351.52 546.9 353.01 546.68 354.49C535.07 358.94 524.73 359.27 514.11 351.9Z" id="bJpVwJzbE"></path><path d="M536.24 350.63C536.24 351.33 534.4 351.9 532.13 351.9C529.86 351.9 528.02 351.33 528.02 350.63C528.02 349.93 529.86 349.37 532.13 349.37C534.4 349.37 536.24 349.93 536.24 350.63Z" id="dHWc6eLPh"></path><path d="M481.23 360.75L311.15 360.75L311.15 358.22L311.39 357.59L481.23 357.59L481.23 357.59L481.23 360.75Z" id="a5RY09lpE"></path><path d="M92.48 9.5C91.28 10.38 90.52 11.92 89.75 13.35C86.8 18.9 82.8 23.73 78.01 27.53C74.52 30.27 70.09 33.68 70.69 38.72C71 40.38 71.58 41.98 72.39 43.44C75.6 50.38 84.38 55.75 83.52 63.68C86.72 57.96 82.44 55.13 85.64 49.4C87.16 46.68 89.81 43.6 92.1 45.31C92.87 45.88 93.38 46.91 94.18 47.41C96.09 48.61 98.13 46.32 99.82 44.69C105.66 39.09 113.96 40.56 121.22 42.3C124.65 43.13 128.41 44.21 130.44 47.72C133.1 52.33 127.91 57.3 126.59 62.51C126.23 64.03 127.08 65.58 128.5 65.97C128.81 66.06 129.13 66.08 129.44 66.05C131.62 65.82 134.2 65.63 134.33 64.61C137.07 64.71 140.43 64.38 141.61 61.32C141.97 60.12 142.16 58.86 142.17 57.59C142.6 52.46 144.64 47.78 145.99 42.9C147.34 38.01 147.92 32.29 145.65 27.96C144.83 26.52 143.83 25.22 142.67 24.09C129.75 10.72 112.77 8.51 96.51 8.53C95.11 8.41 93.7 8.75 92.48 9.5Z" id="jTnRUQ6pH"></path><path d="M73.12 105.88C73.12 105.88 84.62 147.28 84.62 147.28C88.46 147.74 107.62 150.04 142.12 154.18C133.84 126.58 129.24 111.24 128.32 108.18C128.32 108.18 119.12 104.73 124.87 81.73C130.62 58.73 82.32 74.83 82.32 74.83C80.48 81.04 85.77 103.58 73.12 105.88Z" id="ad2NZFLjS"></path><path d="M51.85 631.99L76 631.99L69.1 568.74L47.25 568.74L47.25 568.74L51.85 631.99Z" id="cSExrGITb"></path><path d="M227.79 502.04L254.24 490.54L243.89 446.84L224.34 449.14L224.34 449.14L227.79 502.04Z" id="a2K4UFV4r"></path><path d="M30 327.25C30 327.25 31.15 393.94 38.05 415.79C38.05 415.79 43.8 438.79 42.65 442.24C42.65 442.24 40.35 443.39 40.35 449.14C40.35 449.14 38.05 545.74 40.35 553.79C40.35 553.79 33.45 575.64 40.35 576.79C40.35 576.79 79.45 576.79 80.6 569.89C80.6 569.89 71.4 560.69 76 556.09C76 556.09 87.5 457.19 87.5 457.19C88.57 452.82 93.94 430.97 103.6 391.64L133.5 357.14L196.74 357.14C208.47 402.68 214.99 427.98 216.29 433.04C216.29 433.04 208.24 454.89 213.99 454.89C213.99 454.89 254.24 461.79 254.24 436.49C254.24 411.19 242.74 336.45 240.44 334.15C238.14 331.85 241.59 323.8 238.14 320.35C234.69 316.9 194.44 292.75 179.49 288.15C164.54 283.55 143.57 278.07 143.57 278.07C120.86 287.91 52.71 317.41 30 327.25Z" id="b2qaaGYCPh"></path><path d="M228.94 492.84C228.94 492.84 224.34 514.69 224.34 514.69C224.34 514.69 250.79 523.89 255.39 519.29C257.39 517.29 263.75 516.59 270.29 516.45C280.25 516.22 282.9 502.13 273.49 498.85C273.07 498.7 272.73 498.62 272.64 498.59C263.44 496.29 254.24 481.34 254.24 481.34C249.18 483.64 236.99 475.59 228.94 492.84Z" id="c8bTyjrZAR"></path><path d="M108.2 24.81C89.14 24.81 73.7 40.25 73.7 59.3C73.7 78.36 89.14 93.8 108.2 93.8C127.25 93.8 142.7 78.36 142.7 59.3C142.7 40.25 127.25 24.81 108.2 24.81Z" id="diRZVY1Ul"></path><path d="M133.5 113.35C133.5 113.35 153.05 165.1 153.05 165.1C153.51 170.01 155.81 194.54 159.94 238.7C153.74 262.85 150.29 276.26 149.6 278.95C149.6 278.95 95.55 322.65 78.3 326.1C78.3 326.1 34.6 331.85 34.6 331.85C34.6 331.85 42.65 204.2 42.65 201.9C42.65 199.6 63.35 120.25 63.35 120.25C77.38 118.87 119.7 131.75 133.5 113.35Z" id="g99KC430Z"></path><path d="M64.5 98.4C61.05 105.3 28.85 122.55 25.4 122.55C21.95 122.55 32.3 218 27.7 229.5C23.1 241 1.25 324.95 13.9 331.85C26.55 338.75 17.35 324.95 30 342.2C42.65 359.44 104.75 359.44 108.2 352.54C111.65 345.65 80.6 293.9 86.35 245.6C92.1 197.3 101.3 130.6 93.25 121.4C85.2 112.2 80.48 98.69 80.48 98.69C77.29 98.63 67.95 91.5 64.5 98.4Z" id="c1ZKELcnTO"></path><path d="M123.6 100.94C123.6 100.94 171.44 116.8 173.74 127.15C173.74 127.15 174.89 209.95 166.84 215.7C166.84 215.7 147.3 230.65 155.35 244.45C155.35 244.45 172.59 273.2 179.49 274.35C179.49 274.35 199.04 283.55 195.59 291.6C195.59 291.6 150.75 284.7 150.75 284.7C150.75 284.7 123.15 264 124.3 231.8C125.45 199.6 122 106.45 122 106.45C122.32 105.35 123.44 101.49 123.6 100.94Z" id="a75Up9Jjkw"></path><path d="M162.24 242.15C145.69 273.2 136.49 290.45 134.65 293.9C134.65 293.9 94.4 335.3 117.4 339.9C117.4 339.9 153.05 301.95 153.05 301.95C155.04 299.11 165 284.93 182.94 259.4L162.24 242.15Z" id="a1130ARQGt"></path><path d="M92.48 19.26C91.35 19.92 90.42 20.78 89.75 21.77C86.68 25.48 82.68 28.63 78.01 31.02C74.52 32.8 70.09 35.02 70.69 38.31C71.01 39.41 71.59 40.45 72.39 41.39C75.62 45.96 76.9 51.26 76.05 56.47C77.01 55.35 84.68 46.4 85.64 45.28C87.16 43.5 89.81 41.49 92.1 42.61C92.87 42.98 93.38 43.65 94.18 43.98C96.09 44.76 98.13 43.27 99.82 42.21C105.66 38.55 113.96 39.51 121.22 40.65C124.65 41.19 128.41 41.89 130.44 44.18C133.81 47.98 130.29 53.46 132.26 57.85C133.37 57.23 134.12 56.27 134.33 55.19C137.07 55.26 140.43 55.04 141.61 53.05C141.97 52.27 142.16 51.45 142.17 50.61C142.6 47.27 144.64 44.22 145.99 41.04C147.34 37.85 147.92 34.12 145.65 31.3C144.81 30.34 143.81 29.49 142.67 28.77C129.75 20.06 112.77 18.62 96.51 18.63C95.12 18.55 93.73 18.77 92.48 19.26Z" id="a1HcLQzRzb"></path><path d="M162.24 122.55C168.67 124.26 172.24 125.21 172.96 125.4C172.96 125.4 197.89 189.25 192.14 232.95C192.14 232.95 182.94 267.45 182.94 267.45C182.94 267.45 173.74 246.75 153.05 251.35C154.27 234.18 157.34 191.24 162.24 122.55Z" id="k7yk4GxmH"></path><path d="M44.17 636.76C42.04 640.22 38.03 642.03 35.36 645.08C34.51 646.1 33.76 647.19 33.1 648.34C30.63 652.48 28.62 657.78 31.05 661.94C33.01 665.29 37.13 666.6 40.9 667.49C45.67 668.62 50.62 669.52 55.45 668.66C60.27 667.8 64.99 664.84 66.71 660.25C67.04 659.1 67.45 657.97 67.91 656.86C70.53 651.71 78.73 651.65 81.4 646.54C83.28 642.96 81.55 638.63 79.83 634.97C79.31 633.86 75.1 624.92 74.58 623.81C72.83 620.1 65.76 622.23 62.08 621.34C57.27 620.19 52.3 618.91 48.84 623.63C46.07 627.4 46.62 632.78 44.17 636.76Z" id="e1bdjwmgxQ"></path><path d="M10.45 265.15C39.43 310 55.53 334.91 58.75 339.9C58.75 339.9 88.65 377.84 97.85 360.59C97.85 360.59 65.65 314.6 65.65 314.6C63.58 310.76 53.23 291.6 34.6 257.1L10.45 265.15Z" id="dwiJrJ2He"></path><path d="M25.4 122.55C25.4 122.55 7 128.3 2.4 152.45C2.4 152.45 1.25 273.2 7 274.35C7 274.35 35.4 257.53 39.02 261.34C39.02 261.34 31.15 245.6 34.6 235.25C38.05 224.9 34.6 124.85 34.6 124.85C32.76 124.39 26.32 122.78 25.4 122.55Z" id="f2t1Am2ATs"></path><path d="M466.95 176.18C466.95 176.18 466.95 176.18 466.95 176.18C466.95 180.48 466.95 182.86 466.95 183.34C466.95 183.34 466.95 183.34 466.95 183.34C449.12 183.34 439.21 183.34 437.23 183.34C437.23 183.34 437.23 183.34 437.23 183.34C437.23 179.05 437.23 176.66 437.23 176.18C437.23 176.18 437.23 176.18 437.23 176.18C455.06 176.18 464.97 176.18 466.95 176.18Z" id="a9wS46MT4M"></path><path d="M569.88 176.18C569.88 176.18 569.88 176.18 569.88 176.18C569.88 180.48 569.88 182.86 569.88 183.34C569.88 183.34 569.88 183.34 569.88 183.34C563.6 183.34 560.12 183.34 559.42 183.34C559.42 183.34 559.42 183.34 559.42 183.34C559.42 179.05 559.42 176.66 559.42 176.18C559.42 176.18 559.42 176.18 559.42 176.18C565.69 176.18 569.18 176.18 569.88 176.18Z" id="c29g7K3Xto"></path><path d="M590.79 176.18C590.79 176.18 590.79 176.18 590.79 176.18C590.79 180.48 590.79 182.86 590.79 183.34C590.79 183.34 590.79 183.34 590.79 183.34C584.52 183.34 581.03 183.34 580.34 183.34C580.34 183.34 580.34 183.34 580.34 183.34C580.34 179.05 580.34 176.66 580.34 176.18C580.34 176.18 580.34 176.18 580.34 176.18C586.61 176.18 590.1 176.18 590.79 176.18Z" id="aB8590spy"></path><path d="M548.41 176.18C548.41 176.18 548.41 176.18 548.41 176.18C548.41 180.48 548.41 182.86 548.41 183.34C548.41 183.34 548.41 183.34 548.41 183.34C505.81 183.34 482.14 183.34 477.41 183.34C477.41 183.34 477.41 183.34 477.41 183.34C477.41 179.05 477.41 176.66 477.41 176.18C477.41 176.18 477.41 176.18 477.41 176.18C520.01 176.18 543.68 176.18 548.41 176.18Z" id="a2eNrSzEq8"></path><path d="M429.52 222.42C429.52 222.42 429.52 222.42 429.52 222.42C429.52 226.71 429.52 229.1 429.52 229.57C429.52 229.57 429.52 229.57 429.52 229.57C411.69 229.57 401.78 229.57 399.8 229.57C399.8 229.57 399.8 229.57 399.8 229.57C399.8 225.28 399.8 222.89 399.8 222.42C399.8 222.42 399.8 222.42 399.8 222.42C417.64 222.42 427.54 222.42 429.52 222.42Z" id="d1YuCgiGA4"></path><path d="M532.45 222.42C532.45 222.42 532.45 222.42 532.45 222.42C532.45 226.71 532.45 229.1 532.45 229.57C532.45 229.57 532.45 229.57 532.45 229.57C526.18 229.57 522.69 229.57 521.99 229.57C521.99 229.57 521.99 229.57 521.99 229.57C521.99 225.28 521.99 222.89 521.99 222.42C521.99 222.42 521.99 222.42 521.99 222.42C528.27 222.42 531.75 222.42 532.45 222.42Z" id="cYMjGE0X9"></path><path d="M553.37 222.42C553.37 222.42 553.37 222.42 553.37 222.42C553.37 226.71 553.37 229.1 553.37 229.57C553.37 229.57 553.37 229.57 553.37 229.57C547.09 229.57 543.61 229.57 542.91 229.57C542.91 229.57 542.91 229.57 542.91 229.57C542.91 225.28 542.91 222.89 542.91 222.42C542.91 222.42 542.91 222.42 542.91 222.42C549.18 222.42 552.67 222.42 553.37 222.42Z" id="e104pxkHF8"></path><path d="M510.98 222.42C510.98 222.42 510.98 222.42 510.98 222.42C510.98 226.71 510.98 229.1 510.98 229.57C510.98 229.57 510.98 229.57 510.98 229.57C468.38 229.57 444.72 229.57 439.98 229.57C439.98 229.57 439.98 229.57 439.98 229.57C439.98 225.28 439.98 222.89 439.98 222.42C439.98 222.42 439.98 222.42 439.98 222.42C482.58 222.42 506.25 222.42 510.98 222.42Z" id="k3QfBJhsx"></path><path d="M552.26 192.14C552.26 192.14 552.26 192.14 552.26 192.14C552.26 196.44 552.26 198.82 552.26 199.3C552.26 199.3 552.26 199.3 552.26 199.3C534.43 199.3 524.52 199.3 522.54 199.3C522.54 199.3 522.54 199.3 522.54 199.3C522.54 195.01 522.54 192.62 522.54 192.14C522.54 192.14 522.54 192.14 522.54 192.14C540.38 192.14 550.28 192.14 552.26 192.14Z" id="b1WzxcrXCe"></path><path d="M592.44 192.14C592.44 192.14 592.44 192.14 592.44 192.14C592.44 196.44 592.44 198.82 592.44 199.3C592.44 199.3 592.44 199.3 592.44 199.3C574.61 199.3 564.7 199.3 562.72 199.3C562.72 199.3 562.72 199.3 562.72 199.3C562.72 195.01 562.72 192.62 562.72 192.14C562.72 192.14 562.72 192.14 562.72 192.14C580.56 192.14 590.46 192.14 592.44 192.14Z" id="b2y3rOCHrL"></path><path d="M410.26 192.14C410.26 192.14 410.26 192.14 410.26 192.14C410.26 196.44 410.26 198.82 410.26 199.3C410.26 199.3 410.26 199.3 410.26 199.3C403.98 199.3 400.5 199.3 399.8 199.3C399.8 199.3 399.8 199.3 399.8 199.3C399.8 195.01 399.8 192.62 399.8 192.14C399.8 192.14 399.8 192.14 399.8 192.14C406.08 192.14 409.56 192.14 410.26 192.14Z" id="huauRZdZG"></path><path d="M431.18 192.14C431.18 192.14 431.18 192.14 431.18 192.14C431.18 196.44 431.18 198.82 431.18 199.3C431.18 199.3 431.18 199.3 431.18 199.3C424.9 199.3 421.41 199.3 420.72 199.3C420.72 199.3 420.72 199.3 420.72 199.3C420.72 195.01 420.72 192.62 420.72 192.14C420.72 192.14 420.72 192.14 420.72 192.14C426.99 192.14 430.48 192.14 431.18 192.14Z" id="b518sug98L"></path><path d="M512.64 192.14C512.64 192.14 512.64 192.14 512.64 192.14C512.64 196.44 512.64 198.82 512.64 199.3C512.64 199.3 512.64 199.3 512.64 199.3C470.03 199.3 446.37 199.3 441.63 199.3C441.63 199.3 441.63 199.3 441.63 199.3C441.63 195.01 441.63 192.62 441.63 192.14C441.63 192.14 441.63 192.14 441.63 192.14C484.23 192.14 507.9 192.14 512.64 192.14Z" id="i5coSl1iQ"></path><path d="M490.62 207.56C490.62 207.56 490.62 207.56 490.62 207.56C490.62 211.85 490.62 214.23 490.62 214.71C490.62 214.71 490.62 214.71 490.62 214.71C472.79 214.71 462.88 214.71 460.9 214.71C460.9 214.71 460.9 214.71 460.9 214.71C460.9 210.42 460.9 208.03 460.9 207.56C460.9 207.56 460.9 207.56 460.9 207.56C478.73 207.56 488.64 207.56 490.62 207.56Z" id="ctEgJTwkf"></path><path d="M450.44 207.56C450.44 207.56 450.44 207.56 450.44 207.56C450.44 211.85 450.44 214.23 450.44 214.71C450.44 214.71 450.44 214.71 450.44 214.71C432.61 214.71 422.7 214.71 420.72 214.71C420.72 214.71 420.72 214.71 420.72 214.71C420.72 210.42 420.72 208.03 420.72 207.56C420.72 207.56 420.72 207.56 420.72 207.56C438.55 207.56 448.46 207.56 450.44 207.56Z" id="dKx1oQ8Z2"></path><path d="M410.26 207.56C410.26 207.56 410.26 207.56 410.26 207.56C410.26 211.85 410.26 214.23 410.26 214.71C410.26 214.71 410.26 214.71 410.26 214.71C403.98 214.71 400.5 214.71 399.8 214.71C399.8 214.71 399.8 214.71 399.8 214.71C399.8 210.42 399.8 208.03 399.8 207.56C399.8 207.56 399.8 207.56 399.8 207.56C406.08 207.56 409.56 207.56 410.26 207.56Z" id="b1GNixI5ui"></path><path d="M592.44 207.56C592.44 207.56 592.44 207.56 592.44 207.56C592.44 211.85 592.44 214.23 592.44 214.71C592.44 214.71 592.44 214.71 592.44 214.71C586.17 214.71 582.68 214.71 581.99 214.71C581.99 214.71 581.99 214.71 581.99 214.71C581.99 210.42 581.99 208.03 581.99 207.56C581.99 207.56 581.99 207.56 581.99 207.56C588.26 207.56 591.75 207.56 592.44 207.56Z" id="bckhpm8xR"></path><path d="M571.53 207.56C571.53 207.56 571.53 207.56 571.53 207.56C571.53 211.85 571.53 214.23 571.53 214.71C571.53 214.71 571.53 214.71 571.53 214.71C528.93 214.71 505.26 214.71 500.53 214.71C500.53 214.71 500.53 214.71 500.53 214.71C500.53 210.42 500.53 208.03 500.53 207.56C500.53 207.56 500.53 207.56 500.53 207.56C543.13 207.56 566.8 207.56 571.53 207.56Z" id="d2juvtBBy"></path></defs><g><g><use xlink:href="#a4cqBlQRrD" opacity="1" fill="#e6e6e6" fill-opacity="1"></use><g><use xlink:href="#a4cqBlQRrD" opacity="1" fill-opacity="0" stroke="#000000" stroke-width="1" stroke-opacity="0"></use></g></g><g><use xlink:href="#a3wLiLgpdf" opacity="1" fill="#000000" fill-opacity="1"></use><g><use xlink:href="#a3wLiLgpdf" opacity="1" fill-opacity="0" stroke="#000000" stroke-width="1" stroke-opacity="0"></use></g></g><g><use xlink:href="#aKQFag7NE" opacity="1" fill="#e6e6e6" fill-opacity="1"></use><g><use xlink:href="#aKQFag7NE" opacity="1" fill-opacity="0" stroke="#000000" stroke-width="1" stroke-opacity="0"></use></g></g><g><use xlink:href="#b3aAnffrp" opacity="1" fill="#000000" fill-opacity="1"></use><g><use xlink:href="#b3aAnffrp" opacity="1" fill-opacity="0" stroke="#000000" stroke-width="1" stroke-opacity="0"></use></g></g><g><use xlink:href="#a25ZGv1iYD" opacity="1" fill="#e6e6e6" fill-opacity="1"></use><g><use xlink:href="#a25ZGv1iYD" opacity="1" fill-opacity="0" stroke="#000000" stroke-width="1" stroke-opacity="0"></use></g></g><g><use xlink:href="#a5wCzSb39G" opacity="1" fill="#000000" fill-opacity="1"></use><g><use xlink:href="#a5wCzSb39G" opacity="1" fill-opacity="0" stroke="#000000" stroke-width="1" stroke-opacity="0"></use></g></g><g><use xlink:href="#b5q51x70Mv" opacity="1" fill="#3f3d56" fill-opacity="1"></use><g><use xlink:href="#b5q51x70Mv" opacity="1" fill-opacity="0" stroke="#000000" stroke-width="1" stroke-opacity="0"></use></g></g><g><use xlink:href="#a6dzryRddg" opacity="1" fill="#3f3d56" fill-opacity="1"></use><g><use xlink:href="#a6dzryRddg" opacity="1" fill-opacity="0" stroke="#000000" stroke-width="1" stroke-opacity="0"></use></g></g><g><use xlink:href="#a3a8JtHql5" opacity="1" fill="#3f3d56" fill-opacity="1"></use><g><use xlink:href="#a3a8JtHql5" opacity="1" fill-opacity="0" stroke="#000000" stroke-width="1" stroke-opacity="0"></use></g></g><g><use xlink:href="#a1lNbo4sil" opacity="1" fill="#3f3d56" fill-opacity="1"></use><g><use xlink:href="#a1lNbo4sil" opacity="1" fill-opacity="0" stroke="#000000" stroke-width="1" stroke-opacity="0"></use></g></g><g><use xlink:href="#c276mJCav5" opacity="1" fill="#3f3d56" fill-opacity="1"></use><g><use xlink:href="#c276mJCav5" opacity="1" fill-opacity="0" stroke="#000000" stroke-width="1" stroke-opacity="0"></use></g></g><g><use xlink:href="#d1M6Knm5w9" opacity="1" fill="#3f3d56" fill-opacity="1"></use><g><use xlink:href="#d1M6Knm5w9" opacity="1" fill-opacity="0" stroke="#000000" stroke-width="1" stroke-opacity="0"></use></g></g><g><use xlink:href="#i3wtSr58oY" opacity="1" fill="#3f3d56" fill-opacity="1"></use><g><use xlink:href="#i3wtSr58oY" opacity="1" fill-opacity="0" stroke="#000000" stroke-width="1" stroke-opacity="0"></use></g></g><g><use xlink:href="#esVrWjUmm" opacity="1" fill="#3f3d56" fill-opacity="1"></use><g><use xlink:href="#esVrWjUmm" opacity="1" fill-opacity="0" stroke="#000000" stroke-width="1" stroke-opacity="0"></use></g></g><g><use xlink:href="#c52MiaQfYd" opacity="1" fill="#3f3d56" fill-opacity="1"></use><g><use xlink:href="#c52MiaQfYd" opacity="1" fill-opacity="0" stroke="#000000" stroke-width="1" stroke-opacity="0"></use></g></g><g><use xlink:href="#ah2ZG3hJd" opacity="1" fill="#f2f2f2" fill-opacity="1"></use><g><use xlink:href="#ah2ZG3hJd" opacity="1" fill-opacity="0" stroke="#000000" stroke-width="1" stroke-opacity="0"></use></g></g><g><use xlink:href="#b2JzUpjd0c" opacity="1" fill="#f2f2f2" fill-opacity="1"></use><g><use xlink:href="#b2JzUpjd0c" opacity="1" fill-opacity="0" stroke="#000000" stroke-width="1" stroke-opacity="0"></use></g></g><g><use xlink:href="#a1VJ5fJeG" opacity="1" fill="#f2f2f2" fill-opacity="1"></use><g><use xlink:href="#a1VJ5fJeG" opacity="1" fill-opacity="0" stroke="#000000" stroke-width="1" stroke-opacity="0"></use></g></g><g><use xlink:href="#b10NahClUb" opacity="1" fill="#3f3d56" fill-opacity="1"></use><g><use xlink:href="#b10NahClUb" opacity="1" fill-opacity="0" stroke="#000000" stroke-width="1" stroke-opacity="0"></use></g></g><g><use xlink:href="#b4cJrdQ4Si" opacity="1" fill="#3f3d56" fill-opacity="1"></use><g><use xlink:href="#b4cJrdQ4Si" opacity="1" fill-opacity="0" stroke="#000000" stroke-width="1" stroke-opacity="0"></use></g></g><g><use xlink:href="#bJpVwJzbE" opacity="1" fill="#000000" fill-opacity="1"></use><g><use xlink:href="#bJpVwJzbE" opacity="1" fill-opacity="0" stroke="#000000" stroke-width="1" stroke-opacity="0"></use></g></g><g><use xlink:href="#dHWc6eLPh" opacity="1" fill="#f2f2f2" fill-opacity="1"></use><g><use xlink:href="#dHWc6eLPh" opacity="1" fill-opacity="0" stroke="#000000" stroke-width="1" stroke-opacity="0"></use></g></g><g><use xlink:href="#a5RY09lpE" opacity="1" fill="#000000" fill-opacity="1"></use><g><use xlink:href="#a5RY09lpE" opacity="1" fill-opacity="0" stroke="#000000" stroke-width="1" stroke-opacity="0"></use></g></g><g><use xlink:href="#jTnRUQ6pH" opacity="1" fill="#2f2e41" fill-opacity="1"></use><g><use xlink:href="#jTnRUQ6pH" opacity="1" fill-opacity="0" stroke="#000000" stroke-width="1" stroke-opacity="0"></use></g></g><g><use xlink:href="#ad2NZFLjS" opacity="1" fill="#6b442d" fill-opacity="1"></use><g><use xlink:href="#ad2NZFLjS" opacity="1" fill-opacity="0" stroke="#000000" stroke-width="1" stroke-opacity="0"></use></g></g><g><use xlink:href="#cSExrGITb" opacity="1" fill="#6b442d" fill-opacity="1"></use><g><use xlink:href="#cSExrGITb" opacity="1" fill-opacity="0" stroke="#000000" stroke-width="1" stroke-opacity="0"></use></g></g><g><use xlink:href="#a2K4UFV4r" opacity="1" fill="#6b442d" fill-opacity="1"></use><g><use xlink:href="#a2K4UFV4r" opacity="1" fill-opacity="0" stroke="#000000" stroke-width="1" stroke-opacity="0"></use></g></g><g><use xlink:href="#b2qaaGYCPh" opacity="1" fill="#2f2e41" fill-opacity="1"></use><g><use xlink:href="#b2qaaGYCPh" opacity="1" fill-opacity="0" stroke="#000000" stroke-width="1" stroke-opacity="0"></use></g></g><g><use xlink:href="#c8bTyjrZAR" opacity="1" fill="#2f2e41" fill-opacity="1"></use><g><use xlink:href="#c8bTyjrZAR" opacity="1" fill-opacity="0" stroke="#000000" stroke-width="1" stroke-opacity="0"></use></g></g><g><use xlink:href="#diRZVY1Ul" opacity="1" fill="#6b442d" fill-opacity="1"></use><g><use xlink:href="#diRZVY1Ul" opacity="1" fill-opacity="0" stroke="#000000" stroke-width="1" stroke-opacity="0"></use></g></g><g><use xlink:href="#g99KC430Z" opacity="1" fill="#6c63ff" fill-opacity="1"></use><g><use xlink:href="#g99KC430Z" opacity="1" fill-opacity="0" stroke="#000000" stroke-width="1" stroke-opacity="0"></use></g></g><g><use xlink:href="#c1ZKELcnTO" opacity="1" fill="#2f2e41" fill-opacity="1"></use><g><use xlink:href="#c1ZKELcnTO" opacity="1" fill-opacity="0" stroke="#000000" stroke-width="1" stroke-opacity="0"></use></g></g><g><use xlink:href="#a75Up9Jjkw" opacity="1" fill="#2f2e41" fill-opacity="1"></use><g><use xlink:href="#a75Up9Jjkw" opacity="1" fill-opacity="0" stroke="#000000" stroke-width="1" stroke-opacity="0"></use></g></g><g><use xlink:href="#a1130ARQGt" opacity="1" fill="#6b442d" fill-opacity="1"></use><g><use xlink:href="#a1130ARQGt" opacity="1" fill-opacity="0" stroke="#000000" stroke-width="1" stroke-opacity="0"></use></g></g><g><use xlink:href="#a1HcLQzRzb" opacity="1" fill="#2f2e41" fill-opacity="1"></use><g><use xlink:href="#a1HcLQzRzb" opacity="1" fill-opacity="0" stroke="#000000" stroke-width="1" stroke-opacity="0"></use></g></g><g><use xlink:href="#k7yk4GxmH" opacity="1" fill="#2f2e41" fill-opacity="1"></use><g><use xlink:href="#k7yk4GxmH" opacity="1" fill-opacity="0" stroke="#000000" stroke-width="1" stroke-opacity="0"></use></g></g><g><use xlink:href="#e1bdjwmgxQ" opacity="1" fill="#2f2e41" fill-opacity="1"></use><g><use xlink:href="#e1bdjwmgxQ" opacity="1" fill-opacity="0" stroke="#000000" stroke-width="1" stroke-opacity="0"></use></g></g><g><use xlink:href="#dwiJrJ2He" opacity="1" fill="#6b442d" fill-opacity="1"></use><g><use xlink:href="#dwiJrJ2He" opacity="1" fill-opacity="0" stroke="#000000" stroke-width="1" stroke-opacity="0"></use></g></g><g><use xlink:href="#f2t1Am2ATs" opacity="1" fill="#2f2e41" fill-opacity="1"></use><g><use xlink:href="#f2t1Am2ATs" opacity="1" fill-opacity="0" stroke="#000000" stroke-width="1" stroke-opacity="0"></use></g></g><g><use xlink:href="#a9wS46MT4M" opacity="1" fill="#6c63ff" fill-opacity="1"></use><g><use xlink:href="#a9wS46MT4M" opacity="1" fill-opacity="0" stroke="#000000" stroke-width="1" stroke-opacity="0"></use></g></g><g><use xlink:href="#c29g7K3Xto" opacity="1" fill="#6c63ff" fill-opacity="1"></use><g><use xlink:href="#c29g7K3Xto" opacity="1" fill-opacity="0" stroke="#000000" stroke-width="1" stroke-opacity="0"></use></g></g><g><use xlink:href="#aB8590spy" opacity="1" fill="#6c63ff" fill-opacity="1"></use><g><use xlink:href="#aB8590spy" opacity="1" fill-opacity="0" stroke="#000000" stroke-width="1" stroke-opacity="0"></use></g></g><g><use xlink:href="#a2eNrSzEq8" opacity="1" fill="#6c63ff" fill-opacity="1"></use><g><use xlink:href="#a2eNrSzEq8" opacity="1" fill-opacity="0" stroke="#000000" stroke-width="1" stroke-opacity="0"></use></g></g><g><use xlink:href="#d1YuCgiGA4" opacity="1" fill="#6c63ff" fill-opacity="1"></use><g><use xlink:href="#d1YuCgiGA4" opacity="1" fill-opacity="0" stroke="#000000" stroke-width="1" stroke-opacity="0"></use></g></g><g><use xlink:href="#cYMjGE0X9" opacity="1" fill="#6c63ff" fill-opacity="1"></use><g><use xlink:href="#cYMjGE0X9" opacity="1" fill-opacity="0" stroke="#000000" stroke-width="1" stroke-opacity="0"></use></g></g><g><use xlink:href="#e104pxkHF8" opacity="1" fill="#6c63ff" fill-opacity="1"></use><g><use xlink:href="#e104pxkHF8" opacity="1" fill-opacity="0" stroke="#000000" stroke-width="1" stroke-opacity="0"></use></g></g><g><use xlink:href="#k3QfBJhsx" opacity="1" fill="#6c63ff" fill-opacity="1"></use><g><use xlink:href="#k3QfBJhsx" opacity="1" fill-opacity="0" stroke="#000000" stroke-width="1" stroke-opacity="0"></use></g></g><g><use xlink:href="#b1WzxcrXCe" opacity="1" fill="#6c63ff" fill-opacity="1"></use><g><use xlink:href="#b1WzxcrXCe" opacity="1" fill-opacity="0" stroke="#000000" stroke-width="1" stroke-opacity="0"></use></g></g><g><use xlink:href="#b2y3rOCHrL" opacity="1" fill="#6c63ff" fill-opacity="1"></use><g><use xlink:href="#b2y3rOCHrL" opacity="1" fill-opacity="0" stroke="#000000" stroke-width="1" stroke-opacity="0"></use></g></g><g><use xlink:href="#huauRZdZG" opacity="1" fill="#6c63ff" fill-opacity="1"></use><g><use xlink:href="#huauRZdZG" opacity="1" fill-opacity="0" stroke="#000000" stroke-width="1" stroke-opacity="0"></use></g></g><g><use xlink:href="#b518sug98L" opacity="1" fill="#6c63ff" fill-opacity="1"></use><g><use xlink:href="#b518sug98L" opacity="1" fill-opacity="0" stroke="#000000" stroke-width="1" stroke-opacity="0"></use></g></g><g><use xlink:href="#i5coSl1iQ" opacity="1" fill="#6c63ff" fill-opacity="1"></use><g><use xlink:href="#i5coSl1iQ" opacity="1" fill-opacity="0" stroke="#000000" stroke-width="1" stroke-opacity="0"></use></g></g><g><use xlink:href="#ctEgJTwkf" opacity="1" fill="#6c63ff" fill-opacity="1"></use><g><use xlink:href="#ctEgJTwkf" opacity="1" fill-opacity="0" stroke="#000000" stroke-width="1" stroke-opacity="0"></use></g></g><g><use xlink:href="#dKx1oQ8Z2" opacity="1" fill="#6c63ff" fill-opacity="1"></use><g><use xlink:href="#dKx1oQ8Z2" opacity="1" fill-opacity="0" stroke="#000000" stroke-width="1" stroke-opacity="0"></use></g></g><g><use xlink:href="#b1GNixI5ui" opacity="1" fill="#6c63ff" fill-opacity="1"></use><g><use xlink:href="#b1GNixI5ui" opacity="1" fill-opacity="0" stroke="#000000" stroke-width="1" stroke-opacity="0"></use></g></g><g><use xlink:href="#bckhpm8xR" opacity="1" fill="#6c63ff" fill-opacity="1"></use><g><use xlink:href="#bckhpm8xR" opacity="1" fill-opacity="0" stroke="#000000" stroke-width="1" stroke-opacity="0"></use></g></g><g><use xlink:href="#d2juvtBBy" opacity="1" fill="#6c63ff" fill-opacity="1"></use><g><use xlink:href="#d2juvtBBy" opacity="1" fill-opacity="0" stroke="#000000" stroke-width="1" stroke-opacity="0"></use></g></g></g></svg>