<?xml version="1.0" standalone="no"?>
<!DOCTYPE svg PUBLIC "-//W3C//DTD SVG 20010904//EN"
 "http://www.w3.org/TR/2001/REC-SVG-20010904/DTD/svg10.dtd">
<svg version="1.0" xmlns="http://www.w3.org/2000/svg"
 width="192.000000pt" height="192.000000pt" viewBox="0 0 192.000000 192.000000"
 preserveAspectRatio="xMidYMid meet">
<metadata>
Created by potrace 1.11, written by Peter Selinger 2001-2013
</metadata>
<g transform="translate(0.000000,192.000000) scale(0.100000,-0.100000)"
fill="#000000" stroke="none">
<path d="M790 1905 c-36 -8 -75 -16 -87 -19 -13 -3 -61 -20 -108 -40 -254
-103 -464 -330 -549 -591 -50 -154 -57 -377 -18 -526 95 -356 362 -618 719
-705 93 -22 289 -27 378 -9 127 26 156 36 266 89 211 103 364 274 469 521 9
21 24 68 22 72 0 2 4 17 10 35 29 94 32 321 5 438 -83 359 -361 638 -724 726
-90 22 -298 26 -383 9z"/>
</g>
</svg>
